<svg width="144" height="40" viewBox="0 0 144 40" fill="none" xmlns="http://www.w3.org/2000/svg">
<g clip-path="url(#clip0_5327_58934)">
<path d="M36.7644 8.74755C33.3383 8.74755 29.1936 10.489 27.0276 14.0956C25.4667 10.7297 22.5219 8.74755 17.7722 8.74755C14.3828 8.74755 11.047 10.4455 9.21195 12.8956L8.21588 7.83838L0.0032959 9.44613L1.00271 14.5335L1.00605 14.6137L1.00271 39.3918H9.05486V23.8324C9.05486 19.8648 11.0971 16.3819 15.185 16.3819C19.5103 16.3819 20.4128 19.3266 20.4128 23.2942V39.3985H28.4649V23.5315C28.4649 19.564 30.6275 16.3819 34.5951 16.3819C38.8602 16.3819 39.8228 19.3266 39.8228 23.2942V40.0002L47.8749 38.4225V22.2714C47.8816 14.5769 45.2377 8.74755 36.7644 8.74755Z" fill="#27367B"/>
<path d="M51.8727 0C49.0984 0 46.7787 2.32305 46.7787 5.15752C46.7787 7.93181 49.1017 10.2515 51.8727 10.2515C54.7105 10.2515 57.0336 7.92847 57.0336 5.15752C57.0302 2.31971 54.7105 0 51.8727 0Z" fill="#27367B"/>
</g>
<path d="M79.6986 39H75.1546V17.656H90.2586V21.56H79.6986V26.2H90.0346V30.104H79.6986V39ZM97.4039 39H93.3399V17.656H97.4039V39ZM108.602 39.384C103.514 39.384 100.442 35.672 100.442 31.256C100.442 26.872 103.514 23.16 108.602 23.16C113.722 23.16 116.794 26.872 116.794 31.256C116.794 35.672 113.722 39.384 108.602 39.384ZM108.602 35.768C111.13 35.768 112.57 33.688 112.57 31.256C112.57 28.856 111.13 26.776 108.602 26.776C106.074 26.776 104.666 28.856 104.666 31.256C104.666 33.688 106.074 35.768 108.602 35.768ZM137.697 39H133.377L130.113 28.472L126.849 39H122.497L117.793 23.544H122.017L124.897 33.944L128.289 23.544H131.905L135.297 33.944L138.177 23.544H142.401L137.697 39Z" fill="#27367B"/>
<defs>
<clipPath id="clip0_5327_58934">
<rect width="57.0426" height="40" fill="white"/>
</clipPath>
</defs>
</svg>
