<svg width="257" height="240" viewBox="0 0 257 240" fill="none" xmlns="http://www.w3.org/2000/svg">
<g clip-path="url(#clip0_5251_86837)">
<path d="M240.572 74.7803C240.572 71.72 240.498 68.6624 240.204 65.6021C238.773 50.0119 231.574 38.3643 217.29 31.4727C208.329 27.1592 198.854 24.5811 189.234 22.4058C166.614 17.3557 143.918 12.454 121.298 7.40384C114.431 5.85647 107.526 4.41775 100.478 4.30646C88.3241 4.08655 76.6447 6.55597 65.5535 11.6034C54.6849 16.5794 45.3186 23.6193 37.8282 32.9433C31.6229 40.6085 28.2817 49.7125 25.3433 59.0391C22.7361 67.3694 20.1289 75.6626 17.4105 83.9558C14.1409 93.9448 9.25767 103.306 5.58533 113.146C1.25325 124.685 -1.02275 136.556 0.445125 148.903C2.97813 170.465 14.4005 186.018 33.0166 196.375C43.0797 201.977 53.7655 206.29 64.1572 211.266C74.6602 216.279 85.1632 221.255 95.7748 226.045C103.633 229.583 111.235 233.748 119.497 236.329C135.948 241.487 152.328 241.156 168.556 235.666C181.961 231.133 193.455 223.502 202.781 212.742C209.649 204.817 214.678 195.97 217.359 185.798C220.849 172.566 224.338 159.334 227.679 146.065C230.361 135.522 233.408 125.093 235.575 114.442C238.257 101.284 240.495 88.1634 240.57 74.783L240.572 74.7803Z" fill="white"/>
<path d="M244.533 56.1101H59.3295C52.6366 56.1101 47.1891 61.555 47.1891 68.2505V148.038C48.4079 147.471 49.7645 147.153 51.1952 147.153C52.8115 147.153 54.335 147.558 55.6677 148.268V68.2505C55.6677 66.2315 57.3105 64.5888 59.3295 64.5888H244.531C246.55 64.5888 248.192 66.2315 248.192 68.2505V189.109C248.192 191.128 246.55 192.771 244.531 192.771H124.438L94.9903 222.218L95.2606 192.771H59.3268C57.3078 192.771 55.6651 191.128 55.6651 189.109V165.069C54.3323 165.779 52.8088 166.185 51.1926 166.185C49.7618 166.185 48.4052 165.867 47.1864 165.3V189.109C47.1864 195.802 52.6313 201.249 59.3268 201.249H86.7051L86.4851 225.112C86.4586 228.074 88.2047 230.731 90.9391 231.876C91.8532 232.26 92.8097 232.446 93.7583 232.446C95.6421 232.446 97.4916 231.706 98.8852 230.313L127.951 201.247H244.531C251.223 201.247 256.671 195.802 256.671 189.106V68.2478C256.671 61.555 251.226 56.1074 244.531 56.1074L244.533 56.1101Z" fill="#27367B"/>
<path d="M50.8695 161.569C53.5767 161.569 55.7713 159.375 55.7713 156.667C55.7713 153.96 53.5767 151.766 50.8695 151.766C48.1624 151.766 45.9678 153.96 45.9678 156.667C45.9678 159.375 48.1624 161.569 50.8695 161.569Z" fill="#27367B"/>
<path d="M200.966 103.057H101.407C98.5239 103.057 96.1864 105.587 96.1864 108.708C96.1864 111.829 98.5239 114.36 101.407 114.36H200.966C203.849 114.36 206.186 111.829 206.186 108.708C206.186 105.587 203.849 103.057 200.966 103.057Z" fill="#27367B"/>
<path d="M200.966 126.795H101.407C98.5239 126.795 96.1864 129.325 96.1864 132.446C96.1864 135.568 98.5239 138.098 101.407 138.098H200.966C203.849 138.098 206.186 135.568 206.186 132.446C206.186 129.325 203.849 126.795 200.966 126.795Z" fill="#27367B"/>
<path d="M152.747 150.307H101.407C98.5239 150.307 96.1864 152.837 96.1864 155.958C96.1864 159.079 98.5239 161.61 101.407 161.61H152.747C155.63 161.61 157.968 159.079 157.968 155.958C157.968 152.837 155.63 150.307 152.747 150.307Z" fill="#27367B"/>
<path d="M57.0696 1.75359L55.6944 16.9596L69.7293 22.9662C71.1575 23.5783 70.9693 25.6609 69.4538 26.0053L54.5684 29.3941L53.1932 44.6001C53.0528 46.1475 51.0126 46.6138 50.2177 45.2784L42.3935 32.1683L27.5081 35.5571C25.9925 35.9015 24.9194 34.1051 25.9448 32.9366L35.9947 21.4454L28.1705 8.33517C27.373 6.99978 28.7507 5.42592 30.1789 6.03798L44.2138 12.0446L54.2637 0.553325C55.2864 -0.617795 57.21 0.206228 57.0696 1.75359Z" fill="#27367B"/>
<path d="M17.3151 52.8434L20.4601 59.7986L28.0459 58.956C29.1932 58.8288 29.8318 60.241 28.9786 61.02L23.3376 66.1602L26.4827 73.1154C26.9569 74.1646 25.8123 75.2112 24.8081 74.6389L18.1762 70.8606L12.5352 76.0008C11.682 76.7771 10.3361 76.0088 10.5692 74.88L12.1113 67.4055L5.47935 63.6272C4.47781 63.0576 4.79046 61.5367 5.93773 61.4095L13.5235 60.5669L15.0656 53.0924C15.2987 51.9637 16.8408 51.7915 17.3151 52.8434Z" fill="#27367B"/>
</g>
<defs>
<clipPath id="clip0_5251_86837">
<rect width="256.186" height="240" fill="white"/>
</clipPath>
</defs>
</svg>
