<?xml version="1.0" encoding="UTF-8"?>
<svg id="Ebene_1" data-name="Ebene 1" xmlns="http://www.w3.org/2000/svg" xmlns:xlink="http://www.w3.org/1999/xlink" viewBox="0 0 1501.11 582">
  <defs>
    <style>
      .cls-1 {
        clip-path: url(#clippath);
      }

      .cls-2 {
        fill: none;
      }

      .cls-2, .cls-3, .cls-4, .cls-5, .cls-6 {
        stroke-width: 0px;
      }

      .cls-3 {
        fill: #e0ebff;
      }

      .cls-4 {
        fill: #27367b;
      }

      .cls-5 {
        fill: #abc6ff;
        opacity: .3;
      }

      .cls-6 {
        fill: #fff;
      }
    </style>
    <clipPath id="clippath">
      <rect class="cls-2" x="667.5" y="249.46" width="149.6" height="104.9"/>
    </clipPath>
  </defs>
  <rect class="cls-6" width="1500" height="582"/>
  <path class="cls-3" d="M1500,582V239.2c-27.05,57.22-74.25,131.64-156.88,171.5-74.63,36-123.2,17.31-190.12,49.38-37.28,17.87-81.02,51.88-119.11,121.92h466.11Z"/>
  <path class="cls-3" d="M1.11,0v386.28c30.44-64.97,84.11-150.73,179.02-196.38,84.56-40.67,139.6-19.55,215.42-55.78,41.6-19.88,90.29-57.43,132.98-134.12H1.11Z"/>
  <g>
    <g>
      <g class="cls-1">
        <g>
          <path class="cls-4" d="M763.91,272.41c-8.99,0-19.85,4.57-25.54,14.03-4.09-8.83-11.82-14.03-24.27-14.03-8.89,0-17.64,4.45-22.45,10.88l-2.61-13.26-21.54,4.22,2.62,13.34v.21s0,64.98,0,64.98h21.12v-40.81c0-10.4,5.36-19.54,16.08-19.54,11.34,0,13.71,7.72,13.71,18.13v42.23h21.12v-41.61c0-10.41,5.67-18.75,16.08-18.75,11.19,0,13.71,7.72,13.71,18.13v43.81l21.12-4.14v-42.36c.02-20.18-6.92-35.47-29.14-35.47Z"/>
          <path class="cls-4" d="M803.53,249.46c-7.28,0-13.36,6.09-13.36,13.53s6.09,13.36,13.36,13.36,13.53-6.09,13.53-13.36c0-7.44-6.09-13.53-13.53-13.53Z"/>
        </g>
      </g>
      <g>
        <path class="cls-4" d="M427.59,413.37c-1.45,0-2.62-1.18-2.62-2.62v-142.2c-2.39,1.14-5.06,1.8-7.88,1.8s-5.47-.65-7.85-1.78v142.18c0,10.12,8.24,18.36,18.36,18.36h546.25l-4.88-15.74H427.59Z"/>
        <path class="cls-4" d="M1057,174.72H427.59c-10.12,0-18.36,8.24-18.36,18.36v31.15c2.38-1.13,5.04-1.78,7.85-1.78s5.49.66,7.88,1.8v-31.16c0-1.45,1.18-2.62,2.62-2.62h629.41c1.45,0,2.62,1.18,2.62,2.62v181.5c3.78-1.51,7.86-2.18,12.04-1.84,1.3.11,2.51.33,3.7.6v-180.26c0-10.12-8.24-18.36-18.36-18.36Z"/>
      </g>
      <circle class="cls-4" cx="417.31" cy="246.64" r="11.98"/>
    </g>
    <g>
      <ellipse class="cls-5" cx="998.4" cy="358.29" rx="147.11" ry="144.7"/>
      <ellipse class="cls-5" cx="998.4" cy="358.29" rx="118.18" ry="116.24"/>
      <ellipse class="cls-5" cx="998.4" cy="358.29" rx="81.77" ry="80.43"/>
      <ellipse class="cls-5" cx="998.4" cy="358.29" rx="52.15" ry="51.3"/>
      <ellipse class="cls-5" cx="998.4" cy="358.29" rx="31.08" ry="30.57"/>
    </g>
  </g>
  <g>
    <path class="cls-4" d="M1139.4,489.04c1.27-16.87-7.4-44.01-7.4-44.01-2.56-10.26-5.72-20.5-9.41-30.45-.72-3.38-3.55-12.95-13.24-18.38-6.69-3.75-13.13-3.57-17.58-2.65-2.61-2.17-6.26-4.42-10.86-5.47-1.08-.25-2.19-.45-3.37-.55-3.8-.31-7.52.3-10.97,1.68-3.06,1.22-5.91,3.04-8.37,5.4-3.05-1.88-6.97-3.35-11.74-3.24-3.2.07-6.27.86-9.03,2.23l-11.64-37.53c-.15-.5-.36-.98-.61-1.44-6.97-12.8-21.97-18.3-34.14-12.54-9.85,4.67-15.54,15.7-14.17,27.47.06.48.16.96.3,1.43l14.12,45.52,4.45,14.34,4.19,13.51c-10.94-4.87-21.47-4.83-28.58.95-7.69,6.25-8.95,17.62-7.7,25.46,1.84,11.5,8.68,17.24,20.01,26.75,4.04,3.39,8.62,7.23,14.1,12.2,8.46,7.67,13.25,12.81,16.43,16.22,4.87,5.22,7.82,8.38,14.77,10.1,10.65,2.64,17.37-1.13,23.87-4.78,5.48-3.08,12.3-6.91,24.76-9.17,2.18-.39,4.9-.81,7.91-1.27,10.76-1.65,20.62-3.31,28.34-5.71,5-1.55,9.1-3.41,11.98-5.77,2.79-2.29,4.63-4.28,8.14-8.5,2.48-2.98,3.79-4.97,4.61-7.56,0,0,.64-1.99.81-4.24ZM1121.3,491.4s-2.45,3.23-5.49,5.72c-4.57,3.76-23.56,6.67-32.69,8.07-3.17.49-6.03.93-8.32,1.34-4.3.78-8.06,1.72-11.38,2.75-8.32,2.58-13.89,5.71-18.3,8.19-6.15,3.45-7.94,4.31-12.32,3.22-2.22-.55-2.4-.59-7.02-5.54-3.35-3.59-8.42-9.02-17.36-17.13-5.71-5.18-10.62-9.3-14.56-12.61-10.6-8.89-13.69-11.69-14.56-17.13-.7-4.4.22-9.19,2.06-10.69,3.12-2.54,14.93-.55,27.43,12.38,2.55,2.64,6.56,3.18,9.71,1.31,3.15-1.86,4.61-5.65,3.52-9.15l-9.7-31.27-4.45-14.34-15.33-49.43c-.32-4.7,1.8-9.04,5.29-10.7,3.82-1.79,9.78-.29,13.13,5.2l15.36,49.52c.87,2.8,3.19,4.84,6,5.4h3.05c2.68-.51,4.95-2.37,5.92-5,.95-2.57,3.12-4.26,5.54-4.32,3.42-.08,5.85,3.46,5.85,3.46,1.55,2.41,4.28,3.8,7.14,3.63,2.87-.18,5.41-1.89,6.65-4.47.03-.07.08-.14.12-.21,2.08-4.14,5.84-6.6,9.67-6.3,1.85.15,3.44.96,4.67,1.84,1.27.91,2.15,1.91,2.53,2.37,2.31,2.85,6.29,3.74,9.58,2.14.17-.09,4.32-2.03,8.6.36,4.58,2.56,5.49,7.8,5.53,8.02.08.5.21,1,.39,1.47,3.58,9.58,6.64,19.46,9.11,29.36,2.94,11.78,5.1,23.86,6.43,35.97.25,2.28-.35,4.58-1.7,6.44-.03.04-.06.09-.1.13Z"/>
    <path class="cls-4" d="M1039.47,445.47c-.86-2.76-3.81-4.31-6.59-3.44-2.78.86-4.34,3.8-3.48,6.57l12.42,40.04c.86,2.76,3.81,4.31,6.59,3.44,2.78-.86,4.34-3.8,3.48-6.57l-12.42-40.04Z"/>
    <path class="cls-4" d="M1062.04,438.18c-.86-2.78-3.82-4.34-6.6-3.47-2.78.86-4.34,3.82-3.47,6.6l12.49,40.28c.86,2.78,3.82,4.34,6.6,3.47,2.78-.86,4.34-3.82,3.47-6.6l-12.49-40.28Z"/>
    <path class="cls-4" d="M1085.85,434.84c-.79-2.55-3.69-3.93-6.47-3.06-2.78.86-4.39,3.63-3.6,6.19l11.48,37c.79,2.55,3.69,3.93,6.47,3.06,2.78-.86,4.39-3.63,3.6-6.19l-11.48-37Z"/>
  </g>
</svg>