<?xml version="1.0" encoding="UTF-8"?>
<svg id="Ebene_1" data-name="Ebene 1" xmlns="http://www.w3.org/2000/svg" xmlns:xlink="http://www.w3.org/1999/xlink" version="1.1" viewBox="0 0 1500 582">
  <defs>
    <style>
      .cls-1 {
        clip-path: url(#clippath);
      }

      .cls-2 {
        fill: none;
      }

      .cls-2, .cls-3, .cls-4, .cls-5, .cls-6 {
        stroke-width: 0px;
      }

      .cls-3 {
        fill: #f0f5ff;
      }

      .cls-4 {
        fill: #abc6ff;
        isolation: isolate;
        opacity: .3;
      }

      .cls-5 {
        fill: #27367b;
      }

      .cls-6 {
        fill: #fff;
      }
    </style>
    <clipPath id="clippath">
      <rect class="cls-2" x="667" y="249.5" width="149.5" height="104.9"/>
    </clipPath>
  </defs>
  <rect class="cls-6" x=".5" width="1498.9" height="582"/>
  <path class="cls-3" d="M1500,582V239.2c-27,57.2-74.2,131.6-156.8,171.5-74.6,36-123.1,17.3-190,49.4-37.2,17.9-81,51.9-119,121.9h465.8Z"/>
  <path class="cls-3" d="M0,0v386.3c30.4-65,84.1-150.7,178.9-196.4,84.5-40.7,139.5-19.6,215.3-55.8,41.6-19.9,90.2-57.4,132.9-134.1H0Z"/>
  <g>
    <g>
      <g class="cls-1">
        <g>
          <path class="cls-5" d="M763.3,272.4c-9,0-19.8,4.6-25.5,14-4.1-8.8-11.8-14-24.2-14s-17.6,4.5-22.4,10.9l-2.6-13.3-21.5,4.2,2.6,13.3v65.2h21.1v-40.8c0-10.4,5.4-19.5,16.1-19.5s13.7,7.7,13.7,18.1v42.2h21.1v-41.6c0-10.4,5.7-18.8,16.1-18.8s13.7,7.7,13.7,18.1v43.8l21.1-4.1v-42.4c0-20.2-6.9-35.5-29.1-35.5h0l-.2.2Z"/>
          <path class="cls-5" d="M802.9,249.5c-7.3,0-13.3,6.1-13.3,13.5s6.1,13.4,13.3,13.4,13.5-6.1,13.5-13.4-6.1-13.5-13.5-13.5h0Z"/>
        </g>
      </g>
      <g>
        <path class="cls-5" d="M427.3,413.4c-1.5,0-2.6-1.2-2.6-2.6v-142.2c-2.4,1.1-5.1,1.8-7.9,1.8s-5.5-.6-7.8-1.8v142.2c0,10.1,8.2,18.4,18.4,18.4h545.8l-4.9-15.7H427.3Z"/>
        <path class="cls-5" d="M1056.2,174.7H427.3c-10.1,0-18.4,8.2-18.4,18.4v31.1c2.4-1.1,5-1.8,7.8-1.8s5.5.7,7.9,1.8v-31.2c0-1.4,1.2-2.6,2.6-2.6h628.9c1.4,0,2.6,1.2,2.6,2.6v181.5c3.8-1.5,7.8-2.2,12-1.8,1.3.1,2.5.3,3.7.6v-180.3c0-10.1-8.2-18.4-18.3-18.4h.1Z"/>
      </g>
      <circle class="cls-5" cx="417" cy="246.6" r="12"/>
    </g>
    <g>
      <ellipse class="cls-4" cx="997.7" cy="358.3" rx="147" ry="144.7"/>
      <ellipse class="cls-4" cx="997.7" cy="358.3" rx="118.1" ry="116.2"/>
      <ellipse class="cls-4" cx="997.7" cy="358.3" rx="81.7" ry="80.4"/>
      <ellipse class="cls-4" cx="997.7" cy="358.3" rx="52.1" ry="51.3"/>
      <ellipse class="cls-4" cx="997.7" cy="358.3" rx="31.1" ry="30.6"/>
    </g>
  </g>
  <g>
    <path class="cls-5" d="M1138.6,489c1.3-16.9-7.4-44-7.4-44-2.6-10.3-5.7-20.5-9.4-30.5-.7-3.4-3.6-13-13.2-18.4-6.7-3.8-13.1-3.6-17.6-2.6-2.6-2.2-6.3-4.4-10.8-5.5-1.1-.2-2.2-.5-3.4-.5-3.8-.3-7.5.3-11,1.7-3.1,1.2-5.9,3-8.4,5.4-3.1-1.9-7-3.4-11.7-3.2-3.2,0-6.3.9-9,2.2l-11.6-37.5c-.2-.5-.4-1-.6-1.4-7-12.8-22-18.3-34.1-12.5-9.8,4.7-15.5,15.7-14.2,27.5,0,.5.2,1,.3,1.4l14.1,45.5,4.5,14.3,4.2,13.5c-10.9-4.9-21.5-4.8-28.6,1-7.7,6.2-8.9,17.6-7.7,25.5,1.8,11.5,8.7,17.2,20,26.8,4,3.4,8.6,7.2,14.1,12.2,8.5,7.7,13.2,12.8,16.4,16.2,4.9,5.2,7.8,8.4,14.8,10.1,10.6,2.6,17.4-1.1,23.8-4.8,5.5-3.1,12.3-6.9,24.7-9.2,2.2-.4,4.9-.8,7.9-1.3,10.8-1.7,20.6-3.3,28.3-5.7,5-1.5,9.1-3.4,12-5.8,2.8-2.3,4.6-4.3,8.1-8.5,2.5-3,3.8-5,4.6-7.6,0,0,.6-2,.8-4.2h0ZM1120.5,491.4s-2.4,3.2-5.5,5.7c-4.6,3.8-23.5,6.7-32.7,8.1-3.2.5-6,.9-8.3,1.3-4.3.8-8.1,1.7-11.4,2.8-8.3,2.6-13.9,5.7-18.3,8.2-6.2,3.5-7.9,4.3-12.3,3.2-2.2-.5-2.4-.6-7-5.5-3.3-3.6-8.4-9-17.3-17.1-5.7-5.2-10.6-9.3-14.5-12.6-10.6-8.9-13.7-11.7-14.5-17.1-.7-4.4.2-9.2,2.1-10.7,3.1-2.5,14.9-.5,27.4,12.4,2.5,2.6,6.6,3.2,9.7,1.3,3.2-1.9,4.6-5.6,3.5-9.1l-9.7-31.3-4.5-14.3-15.3-49.4c-.3-4.7,1.8-9,5.3-10.7,3.8-1.8,9.8-.3,13.1,5.2l15.4,49.5c.9,2.8,3.2,4.8,6,5.4h3.1c2.7-.5,4.9-2.4,5.9-5,.9-2.6,3.1-4.3,5.5-4.3,3.4,0,5.8,3.5,5.8,3.5,1.6,2.4,4.3,3.8,7.1,3.6,2.9-.2,5.4-1.9,6.7-4.5,0,0,0-.1,0-.2,2.1-4.1,5.8-6.6,9.7-6.3,1.8.1,3.4,1,4.7,1.8,1.3.9,2.2,1.9,2.5,2.4,2.3,2.9,6.3,3.7,9.6,2.1.2,0,4.3-2,8.6.4,4.6,2.6,5.5,7.8,5.5,8,0,.5.2,1,.4,1.5,3.6,9.6,6.6,19.5,9.1,29.4,2.9,11.8,5.1,23.9,6.4,36,.2,2.3-.3,4.6-1.7,6.4h0c0,.1-.2,0-.2,0Z"/>
    <path class="cls-5" d="M1038.7,445.5c-.9-2.8-3.8-4.3-6.6-3.4-2.8.9-4.3,3.8-3.5,6.6l12.4,40c.9,2.8,3.8,4.3,6.6,3.4,2.8-.9,4.3-3.8,3.5-6.6l-12.4-40Z"/>
    <path class="cls-5" d="M1061.2,438.2c-.9-2.8-3.8-4.3-6.6-3.5-2.8.9-4.3,3.8-3.5,6.6l12.5,40.3c.9,2.8,3.8,4.3,6.6,3.5,2.8-.9,4.3-3.8,3.5-6.6l-12.5-40.3Z"/>
    <path class="cls-5" d="M1085,434.8c-.8-2.5-3.7-3.9-6.5-3.1-2.8.9-4.4,3.6-3.6,6.2l11.5,37c.8,2.5,3.7,3.9,6.5,3.1,2.8-.9,4.4-3.6,3.6-6.2l-11.5-37Z"/>
  </g>
</svg>