<?xml version="1.0" encoding="UTF-8"?><svg id="Layer_1" xmlns="http://www.w3.org/2000/svg" viewBox="0 0 2560 906.37" fill="#ffffff"><path d="m602.92,358.32c-30.56,0-67.55,15.55-86.85,47.71-13.94-30.02-40.21-47.71-82.56-47.71-30.24,0-59.99,15.16-76.37,37.02l-8.89-45.11-73.25,14.35,8.92,45.38.04.73-.02,221.03h71.84v-138.84c0-35.38,18.23-66.48,54.68-66.48,38.6,0,46.64,26.27,46.64,61.65v143.67h71.83v-141.53c0-35.38,19.3-63.79,54.68-63.79,38.06,0,46.64,26.27,46.64,61.65v149.04l71.84-14.07v-144.09c0-68.62-23.59-120.62-99.18-120.62Z"/><path d="m773.46,250.65c-24.74,0-45.45,20.71-45.45,46.02s20.71,45.45,45.45,45.45,46.02-20.71,46.02-45.45-20.71-46.02-46.02-46.02Z"/><rect x="738.1" y="363.54" width="71.84" height="268.19"/><path d="m1132.63,574.9c-12.87,0-24.12-7.51-24.12-30.56v-122.76h74.07l-18.49-57.9h-55.58v-86.59l-71.84,14.08v72.51h-93.6v-86.6l-71.84,14.1v72.5h-39.13v57.9h39.13v123.83c0,60.58,28.95,91.67,82.56,91.67,28.41,0,52-9.65,68.08-20.37l-20.37-53.07c-2.14,1.61-17.15,11.26-34.31,11.26-12.87,0-24.12-7.51-24.12-30.56v-122.76h93.6v123.83c0,60.58,28.95,91.67,82.56,91.67,28.41,0,52-9.65,68.08-20.37l-20.37-53.07c-2.14,1.61-17.15,11.26-34.31,11.26Z"/><path d="m1505.3,363.68l-41.28,143.13c-5.36,18.76-8.04,39.54-8.04,39.54,0,0-2.68-20.77-6.97-39l-32.7-143.67h-70.76l-32.7,143.67c-4.29,18.23-6.43,39-6.43,39,0,0-3.22-20.77-8.58-39.54l-40.74-143.13h-70.23l85.77,268.58h65.4l35.92-144.74c4.29-18.23,7.51-37.93,7.51-37.93,0,0,2.68,19.7,6.97,37.93l35.92,144.74h64.87l85.77-268.58h-69.69Z"/><path d="m1769.12,396.38c-19.3-25.73-52.54-38.06-83.63-38.06-73.98,0-121.16,62.19-121.16,139.38s47.17,139.38,121.16,139.38c31.09,0,64.87-11.79,83.63-37.52v37.37l70.23-13.65v-259.6h-70.23v32.7Zm-65.4,174.23c-38.6,0-66.48-30.56-66.48-72.91s27.88-72.91,66.48-72.91,63.79,31.09,63.79,72.91-26.8,72.91-63.79,72.91Z"/><polygon points="1875.27 631.73 1947.1 631.73 1947.1 276.89 1875.27 291.05 1875.27 631.73"/><path d="m2177.35,393.22c-19.3-23.05-49.86-35.38-80.95-35.38-73.98,0-122.23,62.19-122.23,139.38s47.17,139.38,121.16,139.38c32.16,0,66.47-11.79,85.77-37.52v37.65l68.08-14.07v-337.03h-71.84v107.6Zm-63.79,176.91c-38.6,0-66.48-30.56-66.48-72.91s27.88-72.91,66.48-72.91,63.79,31.09,63.79,72.91-26.8,72.91-63.79,72.91Z"/><rect x="2284.99" y="559.52" width="71.84" height="71.84"/></svg>