<?xml version="1.0" encoding="UTF-8"?>
<svg width="88px" xmlns="http://www.w3.org/2000/svg" viewBox="0 0 600 200">
  <defs>
    <style>
      .cls-1 {
        fill: #27367b;
        stroke-width: 0px;
      }
    </style>
  </defs>
  <g>
    <g>
      <path class="cls-1" d="M60.38,88.53v107.98H23.22v-107.98H0v-32.22h23.22v-7.55C23.22,18.29,42.96,0,70.54,0c10.45,0,20.03,2.32,26.71,5.81l-7.55,26.71c-2.9-2.03-6.97-3.48-11.9-3.48-10.45,0-17.42,6.97-17.42,19.74v7.55h28.45v32.22h-28.45ZM110.01,196.52V2.9h36.87v193.61h-36.87Z"/>
      <path class="cls-1" d="M174.45,126.27c0-39.77,27.87-73.44,74.02-73.44s74.31,33.67,74.31,73.44-27.87,73.73-74.31,73.73-74.02-33.67-74.02-73.73ZM284.47,126.27c0-21.77-13.06-40.64-35.99-40.64s-35.7,18.87-35.7,40.64,12.77,40.93,35.7,40.93,35.99-18.87,35.99-40.93Z"/>
      <path class="cls-1" d="M473.15,196.52l-29.61-95.5-29.61,95.5h-39.48l-42.67-140.2h38.32l26.12,94.34,30.77-94.34h32.8l30.77,94.34,26.12-94.34h38.32l-42.67,140.2h-39.19Z"/>
      <rect class="cls-1" x="561.53" y="158.05" width="38.47" height="38.47"/>
    </g>
  </g>
</svg>
