<svg width="216" height="41" viewBox="0 0 216 41" fill="none" xmlns="http://www.w3.org/2000/svg">
<g clip-path="url(#clip0_5218_71844)">
<path d="M33.9441 11.8385C30.7764 11.8385 26.9565 13.4431 24.9586 16.7764C23.5197 13.6708 20.7971 11.8385 16.4079 11.8385C13.2816 11.8385 10.1967 13.412 8.49897 15.6687L7.57764 11L0 12.4907L0.921324 17.1905V17.2629V40.1408H8.35404V25.7723C8.35404 22.1077 10.2381 18.8882 14.0166 18.8882C18.0124 18.8882 18.8406 21.6108 18.8406 25.265V40.1408H26.2733V25.4928C26.2733 21.8282 28.2712 18.8882 31.9358 18.8882C35.8799 18.8882 36.7598 21.6108 36.7598 25.265V40.6894L44.1926 39.2298V24.323C44.2133 17.2215 41.7702 11.8385 33.9441 11.8385Z" fill="#27367B"/>
<path d="M51.6046 0.699219C49.0476 0.699219 46.9048 2.84208 46.9048 5.46113C46.9048 8.01806 49.0476 10.1609 51.6046 10.1609C54.2236 10.1609 56.3665 8.01806 56.3665 5.46113C56.3665 2.84208 54.2236 0.699219 51.6046 0.699219Z" fill="#27367B"/>
<path d="M55.3727 12.377H47.9399V40.1409H55.3727V12.377Z" fill="#27367B"/>
<path d="M88.7785 34.2598C87.4431 34.2598 86.2837 33.4834 86.2837 31.0921V18.3902H93.9545L92.0394 12.3964H86.2837V3.43164L78.851 4.89127V12.3964H76.8116H74.793H69.1512V3.43164L61.7185 4.89127V12.3964H57.6708V18.3902H61.7185V31.206C61.7185 37.4793 64.7102 40.6987 70.2692 40.6987C73.2091 40.6987 75.6522 39.7049 77.3189 38.5869L75.2071 33.09C74.9897 33.2557 73.4265 34.2598 71.6564 34.2598C70.3209 34.2598 69.1615 33.4834 69.1615 31.0921V18.3902H74.8033H76.822H78.851V31.206C78.851 37.4793 81.8427 40.6987 87.4017 40.6987C90.3417 40.6987 92.7847 39.7049 94.4514 38.5869L92.3396 33.09C92.1118 33.266 90.559 34.2598 88.7785 34.2598Z" fill="#27367B"/>
<path d="M127.36 12.3971L123.085 27.2107C122.526 29.1569 122.257 31.2998 122.257 31.2998C122.257 31.2998 121.977 29.1466 121.532 27.2625L118.147 12.3867H110.818L107.433 27.2625C106.988 29.1466 106.77 31.2998 106.77 31.2998C106.77 31.2998 106.439 29.1466 105.88 27.2107L101.667 12.3971H94.3996L103.282 40.2025H110.052L113.768 25.2232C114.213 23.3391 114.545 21.2998 114.545 21.2998C114.545 21.2998 114.824 23.3391 115.269 25.2232L118.986 40.2025H125.704L134.586 12.3971H127.36Z" fill="#27367B"/>
<path d="M154.669 15.782C152.671 13.1215 149.234 11.8379 146.014 11.8379C138.354 11.8379 133.468 18.2768 133.468 26.2685C133.468 34.2603 138.354 40.6992 146.014 40.6992C149.234 40.6992 152.733 39.4776 154.669 36.8172V40.6888L161.936 39.2706V12.3969H154.669V15.782ZM147.899 33.8151C143.903 33.8151 141.014 30.6474 141.014 26.2685C141.014 21.9414 143.903 18.7219 147.899 18.7219C151.729 18.7219 154.503 21.9414 154.503 26.2685C154.503 30.7095 151.729 33.8151 147.899 33.8151Z" fill="#27367B"/>
<path d="M165.663 40.1409H173.095V3.41211L165.663 4.88209V40.1409Z" fill="#27367B"/>
<path d="M196.936 15.4506C194.938 13.0593 191.77 11.786 188.561 11.786C180.901 11.786 175.911 18.225 175.911 26.2167C175.911 34.2084 180.797 40.6473 188.458 40.6473C191.791 40.6473 195.342 39.4258 197.34 36.7653V40.668L204.389 39.2084V4.32227H196.957V15.4506H196.936ZM190.331 33.7633C186.335 33.7633 183.447 30.5956 183.447 26.2167C183.447 21.8896 186.335 18.6701 190.331 18.6701C194.161 18.6701 196.936 21.8896 196.936 26.2167C196.936 30.6577 194.151 33.7633 190.331 33.7633Z" fill="#27367B"/>
<path d="M215.507 32.666H208.075V40.0987H215.507V32.666Z" fill="#27367B"/>
</g>
<defs>
<clipPath id="clip0_5218_71844">
<rect width="216" height="41" fill="white"/>
</clipPath>
</defs>
</svg>
