<svg xmlns="http://www.w3.org/2000/svg" xmlns:xlink="http://www.w3.org/1999/xlink" version="1.1" id="Layer_1" x="0px" y="0px" style="enable-background:new 0 0 2560 906.4;" xml:space="preserve" viewBox="275 250.7 2081.8 386.4">
<style type="text/css">
	.st0{fill:#FFF;}
</style>
<g>
	<path class="st0" d="M602.9,358.3c-30.6,0-67.5,15.5-86.8,47.7c-13.9-30-40.2-47.7-82.6-47.7c-30.2,0-60,15.2-76.4,37l-8.9-45.1   L275,364.6l8.9,45.4l0,0.7l0,221h71.8V492.9c0-35.4,18.2-66.5,54.7-66.5c38.6,0,46.6,26.3,46.6,61.6v143.7h71.8V490.2   c0-35.4,19.3-63.8,54.7-63.8c38.1,0,46.6,26.3,46.6,61.6v149l71.8-14.1V478.9C702.1,410.3,678.5,358.3,602.9,358.3z"/>
	<path class="st0" d="M773.5,250.7c-24.7,0-45.4,20.7-45.4,46c0,24.7,20.7,45.4,45.4,45.4c25.3,0,46-20.7,46-45.4   C819.5,271.4,798.8,250.7,773.5,250.7z"/>
	<rect x="738.1" y="363.5" class="st0" width="71.8" height="268.2"/>
	<path class="st0" d="M1132.6,574.9c-12.9,0-24.1-7.5-24.1-30.6V421.6h74.1l-18.5-57.9h-55.6v-86.6l-71.8,14.1v72.5H1017h-19.5   h-54.5v-86.6l-71.8,14.1v72.5h-39.1v57.9h39.1v123.8c0,60.6,28.9,91.7,82.6,91.7c28.4,0,52-9.6,68.1-20.4l-20.4-53.1   c-2.1,1.6-17.2,11.3-34.3,11.3c-12.9,0-24.1-7.5-24.1-30.6V421.6h54.5h19.5h19.6v123.8c0,60.6,28.9,91.7,82.6,91.7   c28.4,0,52-9.6,68.1-20.4l-20.4-53.1C1164.8,565.3,1149.8,574.9,1132.6,574.9z"/>
	<path class="st0" d="M1505.3,363.7L1464,506.8c-5.4,18.8-8,39.5-8,39.5s-2.7-20.8-7-39l-32.7-143.7h-70.8l-32.7,143.7   c-4.3,18.2-6.4,39-6.4,39s-3.2-20.8-8.6-39.5l-40.7-143.1h-70.2l85.8,268.6h65.4l35.9-144.7c4.3-18.2,7.5-37.9,7.5-37.9   s2.7,19.7,7,37.9l35.9,144.7h64.9l85.8-268.6H1505.3z"/>
	<path class="st0" d="M1769.1,396.4c-19.3-25.7-52.5-38.1-83.6-38.1c-74,0-121.2,62.2-121.2,139.4s47.2,139.4,121.2,139.4   c31.1,0,64.9-11.8,83.6-37.5v37.4l70.2-13.7V363.7h-70.2V396.4z M1703.7,570.6c-38.6,0-66.5-30.6-66.5-72.9   c0-41.8,27.9-72.9,66.5-72.9c37,0,63.8,31.1,63.8,72.9C1767.5,540.6,1740.7,570.6,1703.7,570.6z"/>
	<polygon class="st0" points="1875.3,631.7 1947.1,631.7 1947.1,276.9 1875.3,291.1  "/>
	<path class="st0" d="M2177.4,393.2c-19.3-23.1-49.9-35.4-80.9-35.4c-74,0-122.2,62.2-122.2,139.4s47.2,139.4,121.2,139.4   c32.2,0,66.5-11.8,85.8-37.5v37.7l68.1-14.1v-337h-71.8V393.2z M2113.6,570.1c-38.6,0-66.5-30.6-66.5-72.9   c0-41.8,27.9-72.9,66.5-72.9c37,0,63.8,31.1,63.8,72.9C2177.4,540.1,2150.5,570.1,2113.6,570.1z"/>
	<rect x="2285" y="559.5" class="st0" width="71.8" height="71.8"/>
</g>
</svg>
